<svg fill="none" height="32" viewBox="0 0 32 32" width="32" xmlns="http://www.w3.org/2000/svg"><path clip-rule="evenodd" d="m0 16c0-8.83656 7.16344-16 16-16 8.8366 0 16 7.16344 16 16 0 8.8366-7.1634 16-16 16-8.83656 0-16-7.1634-16-16zm22.1-4.5c.7-.1 1.3-.2 1.9-.5-.4.7-1 1.3-1.7 1.7.2 4.7-3.2 9.8-9.3 9.8-1.8 0-3.5-.6-5-1.5 1.7.2 3.5-.3 4.7-1.2-1.5 0-2.7-1-3.1-2.3.5.1 1 0 1.5-.1-1.5-.4-2.6-1.8-2.6-3.3.5.2 1 .4 1.5.4-1.4-1-1.9-2.9-1-4.4 1.7 2 4.1 3.3 6.8 3.4-.5-2 1.1-4 3.2-4 .9 0 1.8.4 2.4 1 .8-.2 1.5-.4 2.1-.8-.2.8-.7 1.4-1.4 1.8z" fill="#fff" fill-rule="evenodd"/></svg>